<?xml version="1.0" standalone="no"?>
<!DOCTYPE svg PUBLIC "-//W3C//DTD SVG 20010904//EN"
 "http://www.w3.org/TR/2001/REC-SVG-20010904/DTD/svg10.dtd">
<svg version="1.0" xmlns="http://www.w3.org/2000/svg"
 width="1175.000000pt" height="1175.000000pt" viewBox="0 0 1175.000000 1175.000000"
 preserveAspectRatio="xMidYMid meet">
<metadata>
Created by potrace 1.14, written by Peter Selinger 2001-2017
</metadata>
<g transform="translate(0.000000,1175.000000) scale(0.100000,-0.100000)"
fill="#000000" stroke="none">
<path d="M5788 11565 c-2 -1 -34 -5 -73 -9 -172 -16 -318 -71 -555 -208 -91
-52 -221 -127 -289 -167 -68 -39 -126 -71 -129 -71 -3 0 -13 -6 -21 -14 -9 -7
-41 -27 -71 -43 -30 -17 -244 -140 -475 -273 -231 -134 -433 -251 -450 -260
-97 -55 -683 -395 -748 -434 -43 -25 -80 -46 -82 -46 -2 0 -39 -21 -82 -46
-43 -26 -91 -55 -108 -64 -16 -9 -131 -76 -255 -147 -124 -72 -299 -173 -390
-225 -91 -52 -289 -166 -440 -253 -336 -193 -403 -238 -505 -340 -191 -190
-307 -430 -340 -705 -9 -73 -9 -4675 0 -4765 3 -38 8 -72 10 -75 2 -3 6 -23 9
-44 11 -69 66 -218 113 -307 57 -109 113 -184 209 -281 91 -92 172 -147 444
-304 248 -142 575 -331 612 -353 15 -9 89 -52 165 -95 76 -44 250 -144 386
-223 137 -80 269 -156 295 -170 25 -14 69 -39 96 -56 28 -16 66 -38 83 -48 18
-10 119 -69 225 -130 106 -61 213 -123 238 -137 25 -14 126 -73 225 -130 99
-58 200 -116 225 -130 25 -14 140 -80 255 -147 398 -230 870 -502 925 -532
266 -147 593 -182 889 -97 124 37 208 79 569 288 178 103 345 199 370 213 26
14 52 29 57 33 6 4 84 50 175 102 91 52 224 129 297 171 72 42 147 85 165 95
41 24 743 429 780 451 15 9 103 59 195 112 92 53 267 154 388 224 121 70 234
135 251 145 16 10 165 95 330 190 164 95 369 213 454 262 223 129 284 172 381
270 170 171 275 369 324 613 18 86 19 206 19 2450 0 1298 -3 2385 -7 2415 -18
143 -48 246 -112 376 -95 195 -242 362 -416 472 -72 46 -565 333 -729 424 -30
17 -67 39 -82 49 -14 11 -28 19 -31 19 -2 0 -157 88 -343 196 -187 108 -355
206 -374 217 -19 10 -93 53 -165 95 -71 41 -146 84 -165 95 -19 10 -93 53
-165 95 -71 41 -145 83 -162 94 -67 37 -99 56 -151 87 -29 17 -54 31 -56 31
-2 0 -56 32 -120 70 -65 39 -119 70 -121 70 -2 0 -76 43 -166 95 -89 52 -164
95 -166 95 -2 0 -22 11 -44 26 -22 14 -55 33 -72 43 -18 10 -120 69 -227 131
-107 62 -211 122 -230 132 -19 11 -123 71 -231 134 -297 171 -403 214 -589
239 -48 6 -217 14 -222 10z m217 -241 c180 -25 295 -73 575 -236 155 -90 441
-256 850 -491 96 -55 219 -127 273 -159 54 -32 99 -58 102 -58 2 0 36 -20 77
-43 40 -24 165 -97 278 -162 311 -179 424 -244 815 -470 584 -337 738 -427
770 -445 17 -9 86 -49 153 -89 68 -39 127 -71 132 -71 4 0 10 -3 12 -7 2 -5
23 -19 48 -32 233 -124 419 -309 522 -521 40 -81 82 -201 93 -265 4 -22 10
-49 14 -60 3 -11 7 -1048 8 -2305 2 -2490 5 -2366 -54 -2545 -54 -165 -143
-313 -263 -435 -119 -122 -133 -131 -643 -424 -170 -98 -342 -197 -384 -222
-41 -24 -77 -44 -79 -44 -2 0 -22 -11 -44 -25 -21 -13 -155 -91 -297 -173
-331 -190 -575 -331 -638 -369 -27 -16 -57 -32 -65 -36 -8 -4 -28 -15 -45 -26
-23 -14 -979 -566 -1110 -641 -16 -10 -70 -41 -120 -70 -103 -60 -136 -79
-220 -127 -33 -19 -67 -38 -75 -43 -60 -38 -319 -183 -371 -208 -148 -70 -304
-101 -489 -98 -241 5 -391 54 -660 216 -8 5 -69 40 -135 78 -66 38 -196 113
-290 167 -93 54 -285 164 -425 245 -140 81 -298 172 -350 202 -300 173 -429
248 -460 265 -95 54 -622 359 -670 388 -30 18 -73 43 -95 55 -37 21 -525 302
-795 458 -63 37 -123 72 -132 77 -349 200 -410 240 -503 331 -120 117 -216
265 -270 418 -75 208 -71 60 -69 2586 1 1246 4 2276 8 2290 3 14 9 41 12 60
42 247 208 515 416 673 58 44 488 299 759 449 83 46 94 53 109 64 8 6 42 26
75 44 33 17 65 35 70 40 6 4 30 19 55 32 59 33 482 277 588 339 45 27 85 49
89 49 4 0 14 6 22 14 9 7 41 27 71 43 30 17 186 106 345 198 160 92 349 202
420 243 72 42 159 92 195 112 36 20 135 77 220 127 85 49 214 124 285 165 72
41 204 118 295 170 91 53 185 107 210 122 191 112 350 169 505 183 39 3 72 7
73 9 5 4 158 -5 207 -12z"/>
<path d="M4152 6758 c-78 -11 -158 -40 -209 -77 -43 -31 -119 -118 -149 -168
-10 -18 -21 -33 -24 -33 -3 0 -5 59 -5 130 0 107 -3 131 -15 134 -8 3 -93 4
-187 4 l-173 -1 -1 -56 c0 -69 0 -1660 0 -1681 1 -13 33 -15 236 -15 l235 0 1
40 c0 22 2 272 3 555 1 371 5 527 14 557 27 90 115 181 192 199 90 20 180 -11
223 -78 60 -93 60 -91 62 -699 1 -306 5 -560 8 -565 3 -5 113 -9 244 -9 l238
0 0 610 c0 515 -2 625 -16 706 -36 212 -153 360 -331 418 -106 34 -230 45
-346 29z"/>
<path d="M9245 6762 c-53 -6 -148 -33 -187 -53 -50 -26 -148 -124 -183 -183
-15 -25 -30 -46 -33 -46 -4 0 -7 53 -7 118 1 64 -1 124 -3 133 -3 14 -26 16
-188 16 -128 0 -184 -3 -185 -11 -1 -14 -1 -1729 0 -1736 1 -3 107 -5 236 -5
l235 0 1 50 c0 27 1 280 2 560 3 499 3 511 25 565 29 74 72 123 134 154 94 47
214 28 266 -43 11 -16 31 -58 44 -92 22 -63 23 -70 25 -599 1 -294 2 -549 2
-565 l1 -30 238 0 c130 -1 239 3 242 6 3 4 5 295 4 646 -1 618 -2 640 -23 718
-53 196 -163 314 -345 370 -78 24 -221 37 -301 27z"/>
<path d="M2345 6743 c-370 -79 -601 -362 -660 -808 -20 -151 0 -376 46 -517
84 -255 282 -421 557 -465 63 -10 324 -10 387 0 71 11 191 43 253 67 80 31
172 79 172 90 0 10 -72 183 -105 252 l-18 36 -36 -22 c-100 -62 -280 -108
-396 -101 -144 9 -242 60 -312 163 -53 79 -94 238 -60 239 54 0 215 17 281 29
45 9 94 18 110 20 41 8 193 62 241 86 116 60 206 154 251 263 24 60 28 85 30
179 5 258 -107 414 -346 482 -79 23 -306 27 -395 7z m263 -326 c111 -73 107
-247 -8 -351 -79 -71 -236 -129 -381 -142 l-80 -6 6 73 c12 164 49 269 123
351 71 79 137 107 239 104 47 -2 71 -9 101 -29z"/>
<path d="M5195 6588 l0 -173 383 2 382 3 -42 -57 c-24 -32 -115 -152 -202
-268 -487 -642 -558 -738 -572 -770 -15 -37 -21 -324 -6 -326 31 -5 1396 -3
1405 3 11 7 13 311 1 329 -2 4 -187 7 -409 6 -223 -1 -405 2 -405 6 0 9 -3 5
464 631 197 263 364 493 370 510 8 19 12 79 12 151 l-1 120 -690 3 -690 2 0
-172z"/>
<path d="M7458 6750 c-248 -42 -442 -180 -566 -400 -28 -49 -78 -170 -87 -210
-37 -156 -39 -172 -39 -350 0 -193 10 -268 54 -394 83 -241 291 -407 555 -444
97 -13 355 -6 440 12 155 34 365 119 365 149 0 12 -94 259 -105 278 -3 4 -36
-7 -73 -26 -320 -158 -610 -106 -718 130 -24 51 -48 160 -39 175 2 3 29 8 59
9 30 1 64 4 75 6 11 2 46 6 78 10 326 34 564 151 666 326 55 94 75 253 47 373
-38 170 -161 291 -347 342 -65 18 -290 27 -365 14z m184 -310 c116 -33 165
-169 104 -291 -60 -121 -229 -204 -459 -225 l-68 -7 6 74 c3 41 8 81 10 89 2
8 7 30 10 47 3 18 14 56 26 85 69 175 222 269 371 228z"/>
</g>
</svg>
